<svg width="48" height="48" viewBox="0 0 48 48" fill="none" xmlns="http://www.w3.org/2000/svg">
<g filter="url(#filter0_dd_1_2273)">
<rect x="4" y="3" width="40" height="40" rx="20" fill="#002855"/>
<rect x="12" y="10.5" width="24" height="24" rx="5" fill="#EFF3FE"/>
<path d="M25.5833 18.5156V14H18.8125C18.3622 14 18 14.3553 18 14.7969V30.2031C18 30.6447 18.3622 31 18.8125 31H30.1875C30.6378 31 31 30.6447 31 30.2031V19.3125H26.3958C25.949 19.3125 25.5833 18.9539 25.5833 18.5156ZM27.75 26.3516C27.75 26.5707 27.5672 26.75 27.3438 26.75H21.6563C21.4328 26.75 21.25 26.5707 21.25 26.3516V26.0859C21.25 25.8668 21.4328 25.6875 21.6563 25.6875H27.3438C27.5672 25.6875 27.75 25.8668 27.75 26.0859V26.3516ZM27.75 24.2266C27.75 24.4457 27.5672 24.625 27.3438 24.625H21.6563C21.4328 24.625 21.25 24.4457 21.25 24.2266V23.9609C21.25 23.7418 21.4328 23.5625 21.6563 23.5625H27.3438C27.5672 23.5625 27.75 23.7418 27.75 23.9609V24.2266ZM27.75 21.8359V22.1016C27.75 22.3207 27.5672 22.5 27.3438 22.5H21.6563C21.4328 22.5 21.25 22.3207 21.25 22.1016V21.8359C21.25 21.6168 21.4328 21.4375 21.6563 21.4375H27.3438C27.5672 21.4375 27.75 21.6168 27.75 21.8359ZM31 18.0475V18.25H26.6667V14H26.8732C27.0898 14 27.2964 14.083 27.4487 14.2324L30.763 17.4863C30.9154 17.6357 31 17.8383 31 18.0475Z" fill="#002855"/>
</g>
<defs>
<filter id="filter0_dd_1_2273" x="0" y="0" width="48" height="48" filterUnits="userSpaceOnUse" color-interpolation-filters="sRGB">
<feFlood flood-opacity="0" result="BackgroundImageFix"/>
<feColorMatrix in="SourceAlpha" type="matrix" values="0 0 0 0 0 0 0 0 0 0 0 0 0 0 0 0 0 0 127 0" result="hardAlpha"/>
<feMorphology radius="1" operator="dilate" in="SourceAlpha" result="effect1_dropShadow_1_2273"/>
<feOffset dy="1"/>
<feGaussianBlur stdDeviation="1.5"/>
<feComposite in2="hardAlpha" operator="out"/>
<feColorMatrix type="matrix" values="0 0 0 0 0 0 0 0 0 0 0 0 0 0 0 0 0 0 0.15 0"/>
<feBlend mode="normal" in2="BackgroundImageFix" result="effect1_dropShadow_1_2273"/>
<feColorMatrix in="SourceAlpha" type="matrix" values="0 0 0 0 0 0 0 0 0 0 0 0 0 0 0 0 0 0 127 0" result="hardAlpha"/>
<feOffset dy="1"/>
<feGaussianBlur stdDeviation="1"/>
<feComposite in2="hardAlpha" operator="out"/>
<feColorMatrix type="matrix" values="0 0 0 0 0 0 0 0 0 0 0 0 0 0 0 0 0 0 0.3 0"/>
<feBlend mode="normal" in2="effect1_dropShadow_1_2273" result="effect2_dropShadow_1_2273"/>
<feBlend mode="normal" in="SourceGraphic" in2="effect2_dropShadow_1_2273" result="shape"/>
</filter>
</defs>
</svg>
